<svg height="480" width="640" xmlns="http://www.w3.org/2000/svg" style="position:relative;top:-0.3125px" overflow="hidden"><desc style="-webkit-tap-highlight-color:rgba(0, 0, 0, 0)">Created with Raphaël 2.0.1</desc><rect width="640" height="480" rx="0" ry="0" fill="#f5f5f5" style="-webkit-tap-highlight-color:rgba(0, 0, 0, 0)"/><ellipse cx="320" cy="240" rx="10" ry="14.1" stroke="#555" opacity=".5" style="-webkit-tap-highlight-color:rgba(0, 0, 0, 0)" fill="none"/><ellipse cx="320" cy="240" rx="10" ry="14.1" stroke="#555" transform="matrix(.5 .866 -.866 .5 367.846 -157.128)" opacity=".5" style="-webkit-tap-highlight-color:rgba(0, 0, 0, 0)" fill="none"/><ellipse cx="320" cy="240" rx="10" ry="14.1" stroke="#555" transform="matrix(-.5 .866 -.866 -.5 687.846 82.872)" opacity=".5" style="-webkit-tap-highlight-color:rgba(0, 0, 0, 0)" fill="none"/><ellipse cx="320" cy="240" rx="10" ry="14.1" stroke="#555" transform="matrix(-1 0 0 -1 640 480)" opacity=".5" style="-webkit-tap-highlight-color:rgba(0, 0, 0, 0)" fill="none"/><ellipse cx="320" cy="240" rx="10" ry="14.1" stroke="#555" transform="matrix(-.5 -.866 .866 -.5 272.154 637.128)" opacity=".5" style="-webkit-tap-highlight-color:rgba(0, 0, 0, 0)" fill="none"/><ellipse cx="320" cy="240" rx="10" ry="14.1" stroke="#555" transform="matrix(.5 -.866 .866 .5 -47.846 397.128)" opacity=".5" style="-webkit-tap-highlight-color:rgba(0, 0, 0, 0)" fill="none"/></svg>