<svg height="480" version="1.1" width="640" xmlns="http://www.w3.org/2000/svg" style="overflow: hidden; position: relative; top: -0.3125px;"><desc style="-webkit-tap-highlight-color: rgba(0, 0, 0, 0);">Created with Raphaël 2.0.1</desc><defs style="-webkit-tap-highlight-color: rgba(0, 0, 0, 0);"></defs><rect x="0" y="0" width="640" height="480" r="0" rx="0" ry="0" fill="#f5f5f5" stroke="none" style="-webkit-tap-highlight-color: rgba(0, 0, 0, 0);"></rect><ellipse cx="320" cy="240" rx="10" ry="14.1" fill="none" stroke="#555555" transform="matrix(1,0,0,1,0,0)" stroke-width="1" opacity="0.5" style="-webkit-tap-highlight-color: rgba(0, 0, 0, 0); opacity: 0.5;"></ellipse><ellipse cx="320" cy="240" rx="10" ry="14.1" fill="none" stroke="#555555" transform="matrix(0.5,0.866,-0.866,0.5,367.8461,-157.1281)" stroke-width="1" opacity="0.5" style="-webkit-tap-highlight-color: rgba(0, 0, 0, 0); opacity: 0.5;"></ellipse><ellipse cx="320" cy="240" rx="10" ry="14.1" fill="none" stroke="#555555" transform="matrix(-0.5,0.866,-0.866,-0.5,687.8461,82.8719)" stroke-width="1" opacity="0.5" style="-webkit-tap-highlight-color: rgba(0, 0, 0, 0); opacity: 0.5;"></ellipse><ellipse cx="320" cy="240" rx="10" ry="14.1" fill="none" stroke="#555555" transform="matrix(-1,0,0,-1,640,480)" stroke-width="1" opacity="0.5" style="-webkit-tap-highlight-color: rgba(0, 0, 0, 0); opacity: 0.5;"></ellipse><ellipse cx="320" cy="240" rx="10" ry="14.1" fill="none" stroke="#555555" transform="matrix(-0.5,-0.866,0.866,-0.5,272.1539,637.1281)" stroke-width="1" opacity="0.5" style="-webkit-tap-highlight-color: rgba(0, 0, 0, 0); opacity: 0.5;"></ellipse><ellipse cx="320" cy="240" rx="10" ry="14.1" fill="none" stroke="#555555" transform="matrix(0.5,-0.866,0.866,0.5,-47.8461,397.1281)" stroke-width="1" opacity="0.5" style="-webkit-tap-highlight-color: rgba(0, 0, 0, 0); opacity: 0.5;"></ellipse></svg>